<svg width="18" height="16" viewBox="0 0 18 16" fill="none" xmlns="http://www.w3.org/2000/svg">
<path d="M17.281 4.28104L9.78104 11.781C9.71139 11.8508 9.62867 11.9061 9.53762 11.9438C9.44657 11.9816 9.34898 12.001 9.25042 12.001C9.15186 12.001 9.05426 11.9816 8.96321 11.9438C8.87216 11.9061 8.78945 11.8508 8.71979 11.781L1.21979 4.28104C1.07906 4.14031 1 3.94944 1 3.75042C1 3.55139 1.07906 3.36052 1.21979 3.21979C1.36052 3.07906 1.55139 3 1.75042 3C1.94944 3 2.14031 3.07906 2.28104 3.21979L9.25042 10.1901L16.2198 3.21979C16.2895 3.15011 16.3722 3.09483 16.4632 3.05712C16.5543 3.01941 16.6519 3 16.7504 3C16.849 3 16.9465 3.01941 17.0376 3.05712C17.1286 3.09483 17.2114 3.15011 17.281 3.21979C17.3507 3.28947 17.406 3.3722 17.4437 3.46324C17.4814 3.55429 17.5008 3.65187 17.5008 3.75042C17.5008 3.84896 17.4814 3.94654 17.4437 4.03759C17.406 4.12863 17.3507 4.21136 17.281 4.28104Z" fill="#515162"/>
</svg>
